<?xml version="1.0" encoding="UTF-8"?> <svg xmlns="http://www.w3.org/2000/svg" id="download_clutch" data-name="download clutch" width="140.898" height="40.091" viewBox="0 0 140.898 40.091"><path id="Path_450" data-name="Path 450" d="M22.861,0h6.415V40.091H22.861ZM51.727,27.3c0,6.136-5.159,6.625-6.694,6.625-3.834,0-4.532-3.589-4.532-5.754V12.829H34.087V28.141a12.492,12.492,0,0,0,3.284,9.029,10.71,10.71,0,0,0,7.614,2.859c2.126,0,5.138-.662,6.742-2.126v2.189h6.415V12.829H51.727ZM70.971,3.207H64.556v9.622H59.745v6.415h4.811V40.091h6.415V19.244h4.811V12.829H70.971ZM95.983,31.94a7.79,7.79,0,0,1-5.265,1.952,7.518,7.518,0,0,1-7.738-7.775,7.349,7.349,0,0,1,7.738-7.637,7.985,7.985,0,0,1,5.3,1.918l.973.837,4.325-4.323-1.082-.977a14.154,14.154,0,0,0-9.518-3.587c-8.018,0-13.841,5.786-13.841,13.735A13.586,13.586,0,0,0,90.716,39.992a14,14,0,0,0,9.588-3.624l1.046-.977-4.392-4.32Zm28.229-16.734a9.984,9.984,0,0,0-13.15-.733V0h-6.415V40.091h6.415V25.073c0-6.136,4.359-6.623,5.893-6.623,3.834,0,3.728,3.591,3.728,5.752V40.091H127.1V24.236c0-3.8-.794-6.937-2.887-9.03" transform="translate(13.8)" fill="#fff"></path><path id="Path_451" data-name="Path 451" d="M66.789,13.438a4.638,4.638,0,1,1-4.638,4.638,4.638,4.638,0,0,1,4.638-4.638" transform="translate(37.518 8.112)" fill="#ff3d2e"></path><path id="Path_452" data-name="Path 452" d="M27.681,29.6a12.807,12.807,0,0,1-9.239,3.87C11.3,33.469,6.1,27.856,6.1,20.152,6.1,12.413,11.3,6.8,18.442,6.8a12.954,12.954,0,0,1,9.2,3.834l.975.977L32.91,7.323l-.941-.977A18.668,18.668,0,0,0,18.442.7C7.914.7,0,9.066,0,20.186,0,31.272,7.949,39.6,18.442,39.6A18.721,18.721,0,0,0,32,33.923l.941-.977-4.253-4.357L27.681,29.6Z" transform="translate(0 0.423)" fill="#fff"></path></svg> 