<?xml version="1.0" encoding="UTF-8"?> <svg xmlns="http://www.w3.org/2000/svg" xmlns:xlink="http://www.w3.org/1999/xlink" viewBox="0 0 1750 500"><defs><style>.cls-1,.cls-3,.cls-4,.cls-5{fill:none;}.Graphic-Style-4,.cls-1,.cls-10,.cls-11,.cls-12,.cls-13,.cls-14,.cls-15,.cls-16,.cls-17,.cls-3,.cls-4,.cls-5,.cls-6,.cls-7,.cls-8,.cls-9{stroke-miterlimit:10;}.cls-1,.cls-4,.cls-5{stroke-width:14px;}.cls-1{stroke:url(#linear-gradient);}.cls-2{fill:url(#linear-gradient-9);}.Graphic-Style-4,.cls-10,.cls-11,.cls-12,.cls-13,.cls-14,.cls-15,.cls-16,.cls-17,.cls-3,.cls-6,.cls-7,.cls-8,.cls-9{stroke-width:2px;}.cls-3{stroke:url(#linear-gradient-18);}.cls-4{stroke:url(#linear-gradient-27);}.cls-5{stroke:url(#linear-gradient-28);}.cls-6{fill:url(#linear-gradient-29);stroke:url(#linear-gradient-30);}.cls-17,.cls-7{fill:url(#linear-gradient-31);}.cls-7{stroke:url(#linear-gradient-32);}.cls-16,.cls-8{fill:url(#linear-gradient-33);}.cls-8{stroke:url(#linear-gradient-34);}.cls-15,.cls-9{fill:url(#linear-gradient-35);}.cls-9{stroke:url(#linear-gradient-36);}.cls-10,.cls-14{fill:url(#linear-gradient-37);}.cls-10{stroke:url(#linear-gradient-38);}.cls-11,.cls-13{fill:url(#linear-gradient-39);}.cls-11{stroke:url(#linear-gradient-40);}.cls-12{fill:url(#linear-gradient-41);stroke:url(#linear-gradient-42);}.cls-13{stroke:url(#linear-gradient-44);}.cls-14{stroke:url(#linear-gradient-46);}.cls-15{stroke:url(#linear-gradient-48);}.cls-16{stroke:url(#linear-gradient-50);}.cls-17{stroke:url(#linear-gradient-52);}.Graphic-Style-4{fill:url(#linear-gradient-53);stroke:url(#linear-gradient-54);}</style><linearGradient id="linear-gradient" x1="497.75" y1="355.08" x2="1808.73" y2="355.08" gradientUnits="userSpaceOnUse"><stop offset="0" stop-color="#ed1e79"></stop><stop offset="1" stop-color="#93278f"></stop></linearGradient><linearGradient id="linear-gradient-9" x1="1740.68" y1="172.41" x2="498.06" y2="172.41" xlink:href="#linear-gradient"></linearGradient><linearGradient id="linear-gradient-18" x1="498.06" y1="172.41" x2="1740.68" y2="172.41" xlink:href="#linear-gradient"></linearGradient><linearGradient id="linear-gradient-27" x1="113.1" y1="208.79" x2="386.9" y2="208.79" xlink:href="#linear-gradient"></linearGradient><linearGradient id="linear-gradient-28" x1="55.5" y1="250" x2="444.5" y2="250" xlink:href="#linear-gradient"></linearGradient><linearGradient id="linear-gradient-29" x1="472.9" y1="58.51" x2="23.26" y2="58.51" xlink:href="#linear-gradient"></linearGradient><linearGradient id="linear-gradient-30" x1="222.19" y1="58.51" x2="277.81" y2="58.51" xlink:href="#linear-gradient"></linearGradient><linearGradient id="linear-gradient-31" x1="472.9" y1="84.17" x2="23.26" y2="84.17" xlink:href="#linear-gradient"></linearGradient><linearGradient id="linear-gradient-32" x1="126.44" y1="84.17" x2="182.07" y2="84.17" xlink:href="#linear-gradient"></linearGradient><linearGradient id="linear-gradient-33" x1="472.9" y1="154.26" x2="23.26" y2="154.26" xlink:href="#linear-gradient"></linearGradient><linearGradient id="linear-gradient-34" x1="56.35" y1="154.26" x2="111.98" y2="154.26" xlink:href="#linear-gradient"></linearGradient><linearGradient id="linear-gradient-35" x1="472.9" y1="250" x2="23.26" y2="250" xlink:href="#linear-gradient"></linearGradient><linearGradient id="linear-gradient-36" x1="30.7" y1="250" x2="86.32" y2="250" xlink:href="#linear-gradient"></linearGradient><linearGradient id="linear-gradient-37" x1="472.9" y1="345.74" x2="23.26" y2="345.74" xlink:href="#linear-gradient"></linearGradient><linearGradient id="linear-gradient-38" x1="56.35" y1="345.74" x2="111.98" y2="345.74" xlink:href="#linear-gradient"></linearGradient><linearGradient id="linear-gradient-39" x1="472.9" y1="415.83" x2="23.26" y2="415.83" xlink:href="#linear-gradient"></linearGradient><linearGradient id="linear-gradient-40" x1="126.44" y1="415.83" x2="182.07" y2="415.83" xlink:href="#linear-gradient"></linearGradient><linearGradient id="linear-gradient-41" x1="472.9" y1="441.49" x2="23.26" y2="441.49" xlink:href="#linear-gradient"></linearGradient><linearGradient id="linear-gradient-42" x1="222.19" y1="441.49" x2="277.81" y2="441.49" xlink:href="#linear-gradient"></linearGradient><linearGradient id="linear-gradient-44" x1="317.93" y1="415.83" x2="373.56" y2="415.83" xlink:href="#linear-gradient"></linearGradient><linearGradient id="linear-gradient-46" x1="388.02" y1="345.74" x2="443.65" y2="345.74" xlink:href="#linear-gradient"></linearGradient><linearGradient id="linear-gradient-48" x1="413.68" y1="250" x2="469.3" y2="250" xlink:href="#linear-gradient"></linearGradient><linearGradient id="linear-gradient-50" x1="388.02" y1="154.26" x2="443.65" y2="154.26" xlink:href="#linear-gradient"></linearGradient><linearGradient id="linear-gradient-52" x1="317.93" y1="84.17" x2="373.56" y2="84.17" xlink:href="#linear-gradient"></linearGradient><linearGradient id="linear-gradient-53" x1="375" y1="287.5" x2="125" y2="287.5" xlink:href="#linear-gradient"></linearGradient><linearGradient id="linear-gradient-54" x1="123.3" y1="288.03" x2="376.7" y2="288.03" xlink:href="#linear-gradient"></linearGradient></defs><g id="Layer_12" data-name="Layer 12"><path class="cls-1" d="M541.5,410.21l-10.15,22.46h-33.6l67.39-150.1,3.32-7.32,3.42,7.42,67.48,150h-33.7l-10-22.56-.49-1.07H542Zm39.36-32.62-12.31-27.54-12.4,27.54Z"></path><path class="cls-1" d="M711.15,275.25V401.13H774v31.54H679.61V275.25Z"></path><path class="cls-1" d="M853.74,275.25V401.13h62.89v31.54H822.2V275.25Z"></path><path class="cls-1" d="M964.79,275.25h31.55V432.67H964.79Z"></path><path class="cls-1" d="M1088.44,410.21l-10.15,22.46h-33.6l67.38-150.1,3.32-7.32,3.42,7.42,67.48,150H1152.6l-10.06-22.56-.49-1.07h-53.12Zm39.36-32.62-12.31-27.54-12.4,27.54Z"></path><path class="cls-1" d="M1321,361.28v-86h31.54V432.67l-94.43-86.13v86.13h-31.55V275.25Z"></path><path class="cls-1" d="M1512.94,281.45a82.2,82.2,0,0,1,25.14,16.84l-22.26,22.27q-14.07-13.87-33.4-13.87a47.23,47.23,0,0,0-33.35,80.62,47.15,47.15,0,0,0,66.75-.05l22.26,22.26a81.28,81.28,0,0,1-25.14,17,76,76,0,0,1-30.52,6.2q-32.52,0-55.62-23.1T1403.71,354q0-32.43,23.09-55.57t55.62-23.14A75.81,75.81,0,0,1,1512.94,281.45Z"></path><path class="cls-1" d="M1677.75,275.25v31.44h-62.89v31.55H1662v31.44h-47.16v31.45h62.89v31.54h-94.44V275.25Z"></path><path class="cls-2" d="M568.76,250l-3.32-7.42-67.38-150h33.3l37.31,82.91L606,92.58h33.69Z"></path><path class="cls-2" d="M667.42,227.54,657.26,250H623.67L691.05,99.9l3.32-7.32,3.42,7.42,67.48,150H731.58l-10.06-22.56-.49-1.07H667.9Zm39.35-32.62-12.3-27.54-12.41,27.54Z"></path><path class="cls-2" d="M823.06,92.58V218.46H886V250H791.52V92.58Z"></path><path class="cls-2" d="M920.11,92.58h31.54V250H920.11Z"></path><path class="cls-2" d="M1075.37,115.72q23.13,23.15,23.14,55.57t-23.14,55.61Q1052.23,250,1019.8,250H988.26V92.58h31.54Q1052.22,92.58,1075.37,115.72Zm-22.27,88.92a47,47,0,0,0,0-66.7A45.34,45.34,0,0,0,1019.8,124v94.44A45.52,45.52,0,0,0,1053.1,204.64Z"></path><path class="cls-2" d="M1150.66,227.54,1140.5,250h-33.59l67.38-150.1,3.32-7.32L1181,100l67.48,150h-33.69l-10.06-22.56-.49-1.07h-53.12ZM1190,194.92l-12.3-27.54-12.4,27.54Z"></path><path class="cls-2" d="M1325.66,92.58H1365V124h-39.35V250h-31.54V124h-39.36V92.58h70.9Z"></path><path class="cls-2" d="M1514.92,115.72q23.14,23.15,23.14,55.57t-23.14,55.61q-23.14,23.1-55.57,23.1t-55.62-23.1q-23.09-23.09-23.09-55.61t23.09-55.57q23.1-23.14,55.62-23.14T1514.92,115.72ZM1426,137.94a47.15,47.15,0,0,0,0,66.7,47.27,47.27,0,0,0,80.62-33.35A47.16,47.16,0,0,0,1426,137.94Z"></path><path class="cls-2" d="M1567.24,202.73V92.58h55.08a53.09,53.09,0,0,1,39,16.21q16.21,16.21,16.21,38.87a53,53,0,0,1-10,31.59A54.52,54.52,0,0,1,1642,199.12L1677.49,250H1639l-40.24-57.62V250h-31.54Zm55.08-31.44A23.58,23.58,0,0,0,1639,131a22.67,22.67,0,0,0-16.7-7h-23.54v47.27Z"></path><path class="cls-3" d="M568.76,250l-3.32-7.42-67.38-150h33.3l37.31,82.91L606,92.58h33.69Z"></path><path class="cls-3" d="M667.42,227.54,657.26,250H623.67L691.05,99.9l3.32-7.32,3.42,7.42,67.48,150H731.58l-10.06-22.56-.49-1.07H667.9Zm39.35-32.62-12.3-27.54-12.41,27.54Z"></path><path class="cls-3" d="M823.06,92.58V218.46H886V250H791.52V92.58Z"></path><path class="cls-3" d="M920.11,92.58h31.54V250H920.11Z"></path><path class="cls-3" d="M1075.37,115.72q23.13,23.15,23.14,55.57t-23.14,55.61Q1052.23,250,1019.8,250H988.26V92.58h31.54Q1052.22,92.58,1075.37,115.72Zm-22.27,88.92a47,47,0,0,0,0-66.7A45.34,45.34,0,0,0,1019.8,124v94.44A45.52,45.52,0,0,0,1053.1,204.64Z"></path><path class="cls-3" d="M1150.66,227.54,1140.5,250h-33.59l67.38-150.1,3.32-7.32L1181,100l67.48,150h-33.69l-10.06-22.56-.49-1.07h-53.12ZM1190,194.92l-12.3-27.54-12.4,27.54Z"></path><path class="cls-3" d="M1325.66,92.58H1365V124h-39.35V250h-31.54V124h-39.36V92.58h70.9Z"></path><path class="cls-3" d="M1514.92,115.72q23.14,23.15,23.14,55.57t-23.14,55.61q-23.14,23.1-55.57,23.1t-55.62-23.1q-23.09-23.09-23.09-55.61t23.09-55.57q23.1-23.14,55.62-23.14T1514.92,115.72ZM1426,137.94a47.15,47.15,0,0,0,0,66.7,47.27,47.27,0,0,0,80.62-33.35A47.16,47.16,0,0,0,1426,137.94Z"></path><path class="cls-3" d="M1567.24,202.73V92.58h55.08a53.09,53.09,0,0,1,39,16.21q16.21,16.21,16.21,38.87a53,53,0,0,1-10,31.59A54.52,54.52,0,0,1,1642,199.12L1677.49,250H1639l-40.24-57.62V250h-31.54Zm55.08-31.44A23.58,23.58,0,0,0,1639,131a22.67,22.67,0,0,0-16.7-7h-23.54v47.27Z"></path><polygon class="cls-4" points="125 325 250 100 375 325 325 325 250 190 175 325 125 325"></polygon><circle class="cls-5" cx="250" cy="250" r="187.5"></circle><circle class="cls-6" cx="250" cy="58.51" r="26.81"></circle><circle class="cls-7" cx="154.26" cy="84.17" r="26.81"></circle><circle class="cls-8" cx="84.17" cy="154.26" r="26.81"></circle><circle class="cls-9" cx="58.51" cy="250" r="26.81"></circle><circle class="cls-10" cx="84.17" cy="345.74" r="26.81"></circle><circle class="cls-11" cx="154.26" cy="415.83" r="26.81"></circle><circle class="cls-12" cx="250" cy="441.49" r="26.81"></circle><circle class="cls-13" cx="345.74" cy="415.83" r="26.81"></circle><circle class="cls-14" cx="415.83" cy="345.74" r="26.81"></circle><circle class="cls-15" cx="441.49" cy="250" r="26.81"></circle><circle class="cls-16" cx="415.83" cy="154.26" r="26.81"></circle><circle class="cls-17" cx="345.74" cy="84.17" r="26.81"></circle><polygon class="Graphic-Style-4" points="125 175 250 400 375 175 325 175 250 310 175 175 125 175"></polygon></g></svg> 