<?xml version="1.0" encoding="UTF-8"?> <svg xmlns="http://www.w3.org/2000/svg" width="75" height="75" viewBox="0 0 75 75" fill="none"><g clip-path="url(#clip0_310_40)"><path d="M35.044 0.0201828C34.8827 0.0348434 34.3695 0.0861555 33.9076 0.122807C23.2551 1.08308 13.2771 6.83003 6.95748 15.663C3.43842 20.5743 1.18768 26.1454 0.337243 32.0463C0.0366569 34.1061 0 34.7145 0 37.5073C0 40.3002 0.0366569 40.9086 0.337243 42.9684C2.37537 57.0499 12.3974 68.881 25.9897 73.2646C28.4238 74.0489 30.9897 74.584 33.9076 74.9065C35.044 75.0312 39.956 75.0312 41.0924 74.9065C46.129 74.3494 50.3959 73.1033 54.6041 70.9555C55.2493 70.6256 55.3739 70.5377 55.2859 70.4644C55.2273 70.4204 52.478 66.7333 49.1789 62.2764L43.1818 54.1764L35.6672 43.0564C31.5323 36.9429 28.1305 31.9436 28.1012 31.9436C28.0718 31.9363 28.0425 36.8769 28.0279 42.9098C28.0059 53.4727 27.9985 53.8979 27.8666 54.1471C27.676 54.5063 27.5293 54.6529 27.2214 54.8142C26.9868 54.9315 26.7815 54.9535 25.6745 54.9535H24.4062L24.0689 54.7409C23.849 54.6016 23.6877 54.4183 23.5777 54.2058L23.4238 53.8759L23.4384 39.1787L23.4604 24.4741L23.6877 24.1882C23.805 24.0342 24.0543 23.8363 24.2302 23.741C24.5308 23.5944 24.6481 23.5798 25.9164 23.5798C27.412 23.5798 27.6613 23.6384 28.0499 24.0636C28.1598 24.1809 32.2287 30.309 37.0968 37.6906C41.9648 45.0722 48.6217 55.1514 51.8915 60.0993L57.8299 69.0936L58.1305 68.8957C60.7918 67.1657 63.607 64.7028 65.8358 62.1372C70.5792 56.6907 73.6364 50.0495 74.6628 42.9684C74.9633 40.9086 75 40.3002 75 37.5073C75 34.7145 74.9633 34.1061 74.6628 32.0463C72.6246 17.9648 62.6026 6.13365 49.0103 1.75013C46.6129 0.973122 44.0616 0.43801 41.2023 0.115477C40.4985 0.0421737 35.6525 -0.0384596 35.044 0.0201828ZM50.3959 22.7001C50.7478 22.8761 51.0337 23.2133 51.1364 23.5651C51.195 23.7557 51.2097 27.8313 51.195 37.0162L51.173 50.1961L48.849 46.6336L46.5176 43.071V33.4903C46.5176 27.2962 46.5469 23.8143 46.5909 23.6457C46.7082 23.2352 46.9648 22.9127 47.3167 22.7221C47.6173 22.5682 47.7273 22.5535 48.8783 22.5535C49.9633 22.5535 50.154 22.5682 50.3959 22.7001Z" fill="white"></path></g><defs><clipPath id="clip0_310_40"><rect width="75" height="75" fill="white"></rect></clipPath></defs></svg> 