<?xml version="1.0" encoding="UTF-8"?> <svg xmlns="http://www.w3.org/2000/svg" id="stars" width="162" height="31" viewBox="0 0 162 31"><path id="Polygon_10" data-name="Polygon 10" d="M13.379,4.7a3,3,0,0,1,5.242,0l2.072,3.72A3,3,0,0,0,22.7,9.9l4.2.876a3,3,0,0,1,1.62,4.94l-2.952,3.29a3,3,0,0,0-.749,2.333l.484,4.374a3,3,0,0,1-4.242,3.053l-3.8-1.759a3,3,0,0,0-2.519,0l-3.8,1.759A3,3,0,0,1,6.7,25.715l.484-4.374a3,3,0,0,0-.749-2.333l-2.952-3.29a3,3,0,0,1,1.62-4.94L9.3,9.9a3,3,0,0,0,2.008-1.477Z" fill="#ff3d2e"></path><path id="Polygon_11" data-name="Polygon 11" d="M13.379,4.7a3,3,0,0,1,5.242,0l2.072,3.72A3,3,0,0,0,22.7,9.9l4.2.876a3,3,0,0,1,1.62,4.94l-2.952,3.29a3,3,0,0,0-.749,2.333l.484,4.374a3,3,0,0,1-4.242,3.053l-3.8-1.759a3,3,0,0,0-2.519,0l-3.8,1.759A3,3,0,0,1,6.7,25.715l.484-4.374a3,3,0,0,0-.749-2.333l-2.952-3.29a3,3,0,0,1,1.62-4.94L9.3,9.9a3,3,0,0,0,2.008-1.477Z" transform="translate(32)" fill="#ff3d2e"></path><path id="Polygon_12" data-name="Polygon 12" d="M13.379,4.7a3,3,0,0,1,5.242,0l2.072,3.72A3,3,0,0,0,22.7,9.9l4.2.876a3,3,0,0,1,1.62,4.94l-2.952,3.29a3,3,0,0,0-.749,2.333l.484,4.374a3,3,0,0,1-4.242,3.053l-3.8-1.759a3,3,0,0,0-2.519,0l-3.8,1.759A3,3,0,0,1,6.7,25.715l.484-4.374a3,3,0,0,0-.749-2.333l-2.952-3.29a3,3,0,0,1,1.62-4.94L9.3,9.9a3,3,0,0,0,2.008-1.477Z" transform="translate(65)" fill="#ff3d2e"></path><path id="Polygon_13" data-name="Polygon 13" d="M13.379,4.7a3,3,0,0,1,5.242,0l2.072,3.72A3,3,0,0,0,22.7,9.9l4.2.876a3,3,0,0,1,1.62,4.94l-2.952,3.29a3,3,0,0,0-.749,2.333l.484,4.374a3,3,0,0,1-4.242,3.053l-3.8-1.759a3,3,0,0,0-2.519,0l-3.8,1.759A3,3,0,0,1,6.7,25.715l.484-4.374a3,3,0,0,0-.749-2.333l-2.952-3.29a3,3,0,0,1,1.62-4.94L9.3,9.9a3,3,0,0,0,2.008-1.477Z" transform="translate(97)" fill="#ff3d2e"></path><path id="Polygon_14" data-name="Polygon 14" d="M13.379,4.7a3,3,0,0,1,5.242,0l2.072,3.72A3,3,0,0,0,22.7,9.9l4.2.876a3,3,0,0,1,1.62,4.94l-2.952,3.29a3,3,0,0,0-.749,2.333l.484,4.374a3,3,0,0,1-4.242,3.053l-3.8-1.759a3,3,0,0,0-2.519,0l-3.8,1.759A3,3,0,0,1,6.7,25.715l.484-4.374a3,3,0,0,0-.749-2.333l-2.952-3.29a3,3,0,0,1,1.62-4.94L9.3,9.9a3,3,0,0,0,2.008-1.477Z" transform="translate(130)" fill="#ff3d2e"></path></svg> 